<svg
    width="128"
    height="128"
    viewBox="0 0 34 34"
    xmlns="http://www.w3.org/2000/svg">
  <title>Arabic Letter فَاء /faːʔ/ (ف (f))</title>
  <path
      d="m 3.590813,27.907562 2.001378,-3.335631 h 21.348032 v -1.934665 q -0.800551,0.26685 -1.634458,0.26685 -1.367609,0 -2.501723,-0.667126 -1.134114,-0.667126 -1.834596,-1.80124 -0.667126,-1.16747 -0.667126,-2.535079 0,-1.400964 0.667126,-2.535078 0.700482,-1.134115 1.834596,-1.801241 1.134114,-0.667126 2.501723,-0.667126 1.367608,0 2.501722,0.667126 1.134114,0.667126 1.80124,1.801241 0.667126,1.134114 0.667126,2.535078 v 9.239696 q 0,0.400275 -0.333563,0.567057 -0.333563,0.166781 -0.667126,0.200138 -0.333563,0 -0.333563,0 z m 21.714952,-8.339076 q 0.700482,0 1.16747,-0.466988 0.500345,-0.500344 0.500345,-1.200827 0,-0.700482 -0.500345,-1.16747 -0.466988,-0.500345 -1.16747,-0.500345 -0.700483,0 -1.200827,0.500345 -0.466988,0.466988 -0.466988,1.16747 0,0.700483 0.466988,1.200827 0.500344,0.466988 1.200827,0.466988 z m -0.03333,-9.7400512 q -0.800551,0 -1.367608,-0.5670571 -0.567057,-0.5670571 -0.567057,-1.3676083 0,-0.8005512 0.567057,-1.3676083 0.567057,-0.5670571 1.367608,-0.5670571 0.800551,0 1.367609,0.5670571 0.567057,0.5670571 0.567057,1.3676083 0,0.8005512 -0.567057,1.3676083 -0.567058,0.5670571 -1.367609,0.5670571 z"
      aria-label="ف" />
  <style>
      @media (prefers-color-scheme: dark) {
          path { fill: #FFF; }
      }
  </style>
</svg>
